<svg id="lighthouse" width="168" height="104" xmlns="http://www.w3.org/2000/svg" title="Lighthouse logo, property of FareHarbor Holdings LLC">
  <!-- This image is property of FareHarbor Holdings, LLC -->
  <g fill="#fff" fill-rule="evenodd">
    <path d="M116.246112 99.7782982V104H53.6451572V80.7968774L47 74.5779859V63.4716628h10.7232365V25.443872h-8.6110839c-.9111997-.0430792-1.6917658-.6659151-1.9355345-1.5444183-.2437688-.8785031.1043486-1.8141423.8632109-2.3200626L83.84894.29227166c.6617094-.38969555 1.4829379-.38969555 2.1446473 0L121.737709 21.4007806c.910949.4002437 1.418803 1.3816398 1.219133 2.3558994-.199671.9742596-1.0527 1.6770925-2.047747 1.687192h-8.643578v38.0277908h10.723236v11.1063231l-6.742641 6.3163154v18.8839969zm-4.224305 0v-7.0632318l-16.929716 7.0632318h16.929716zm-3.964348-36.3066354V25.443872H87.1796422v6.2838407c6.1474926 1.0605814 10.6384411 6.3899369 10.6384411 12.6245121 0 6.2345753-4.4909485 11.5639308-10.6384411 12.6245121v6.4949259h20.8778168zM85.0025003 35.8682279v-.0649492c-2.2951063-.0000653-4.495276.9155224-6.1120487 2.5434932-1.6167727 1.6279708-2.5163567 3.8336063-2.4990352 6.1272328 0 4.7528392 3.8553136 8.6057767 8.6110839 8.6057767s8.6110839-3.8529375 8.6110839-8.6057767c0-4.7528393-3.8553136-8.6057768-8.6110839-8.6057768zM56.8458808 21.2871194H113.15912L85.0025003 4.66010929 56.8458808 21.2871194zm5.101661 4.1567526v38.0277908H82.955337v-6.4949259c-6.1918256-1.0197431-10.7347452-6.3692793-10.7347452-12.6407494 0-6.2714701 4.5429196-11.6210063 10.7347452-12.6407494V25.443872H61.9475418zM118.81319 67.6608899H51.2405526v5.0985168l5.4103603 5.0660422H113.33784l5.47535-5.0985168v-5.0660422zM57.8857098 82.014676l-.0162473 12.177986 31.601053-12.177986H57.8857098zm26.645618 17.7636222l27.4904792-11.5772053v-6.088993h-10.788226L58.1619144 98.6741608a1.99963483 1.99963483 0 0 1-.2924519 0v1.1041374h26.6618653z" fill-rule="nonzero" />
    <path d="M129 45c0 1.1045695.91492 2 2.043531 2h34.912938C167.08508 47 168 46.1045695 168 45s-.91492-2-2.043531-2h-34.912938c-.541978 0-1.061758.2107137-1.444995.5857864C129.2153 43.9608592 129 44.469567 129 45zM158.333399 22.0938248l-33.78154 9.5909719c-1.119779.3170708-1.781611 1.5228752-1.478245 2.6932394.303366 1.1703643 1.457053 1.8620954 2.576832 1.5450246l33.797695-9.6078574c1.119779-.3170708 1.781611-1.5228752 1.478245-2.6932394-.303366-1.1703643-1.457053-1.8620953-2.576832-1.5450246l-.016155.0168855zM125.479555 56.1434171l31.842018 9.7660954c1.099117.3371041 2.258503-.2968983 2.589562-1.4160839.331059-1.1191856-.291574-2.2997416-1.39069-2.6368457l-31.842019-9.7660954c-1.099116-.337104-2.258502.2968983-2.589561 1.4160839-.331059 1.1191855.291574 2.2997415 1.39069 2.6368457zM0 45c0 1.1045695.91491992 2 2.04353083 2H36.9564692C38.0850801 47 39 46.1045695 39 45s-.9149199-2-2.0435308-2H2.04353083c-.54197807 0-1.06175813.2107137-1.4449945.5857864C.21529994 43.9608592 0 44.469567 0 45zM40.5097862 35.9788979c.1840731.0281361.3707225.0281361.5547957 0 .9668417-.065802 1.7621165-.8744338 1.9108373-1.9429308.1487208-1.0684971-.3892639-2.1083876-1.2926365-2.498585l-30.1174773-9.4669759c-1.0805043-.3043557-2.18199553.4053388-2.48643732 1.6020198-.30444178 1.1966811.29847863 2.4467382 1.36099472 2.8218007l30.0699234 9.4846712zM14.1739048 65.9991768c.2100004-.0021056.4185641-.0378622.6189458-.1061134l28.6995395-9.3910375c1.1199571-.3662802 1.7543965-1.6490122 1.41706-2.8650622-.3373365-1.21605-1.5187064-1.9049246-2.6386636-1.5386446l-28.7321156 9.3910375c-1.0265314.3168435-1.675474 1.4136487-1.5141311 2.5590968.1613428 1.145448 1.0825408 1.9815101 2.149365 1.9507234z" />
  </g>
</svg>
